<?xml version="1.0" encoding="UTF-8"?>
<svg xmlns="http://www.w3.org/2000/svg" version="1.1" width="100" height="100" viewBox="0 0 100 100"><rect x="0" y="0" width="100" height="100" fill="#ffffff"/><g transform="scale(3.03)"><g transform="translate(0,0)"><path fill-rule="evenodd" d="M8 0L8 4L10 4L10 3L11 3L11 4L12 4L12 2L11 2L11 0ZM12 0L12 1L13 1L13 0ZM17 0L17 1L16 1L16 2L15 2L15 3L14 3L14 2L13 2L13 3L14 3L14 4L13 4L13 5L11 5L11 6L10 6L10 7L9 7L9 5L8 5L8 7L9 7L9 8L10 8L10 7L11 7L11 6L12 6L12 8L11 8L11 9L7 9L7 8L4 8L4 9L7 9L7 10L6 10L6 11L7 11L7 12L6 12L6 13L4 13L4 12L5 12L5 10L4 10L4 12L3 12L3 9L2 9L2 8L0 8L0 10L1 10L1 9L2 9L2 11L0 11L0 12L1 12L1 13L0 13L0 15L2 15L2 17L1 17L1 16L0 16L0 17L1 17L1 19L0 19L0 22L3 22L3 23L2 23L2 24L0 24L0 25L5 25L5 24L6 24L6 25L8 25L8 26L10 26L10 27L11 27L11 28L12 28L12 29L13 29L13 30L15 30L15 31L14 31L14 32L13 32L13 31L12 31L12 32L11 32L11 31L10 31L10 32L11 32L11 33L12 33L12 32L13 32L13 33L16 33L16 32L17 32L17 33L18 33L18 31L16 31L16 30L17 30L17 29L18 29L18 28L20 28L20 29L21 29L21 30L20 30L20 31L19 31L19 32L20 32L20 33L25 33L25 32L27 32L27 33L28 33L28 31L31 31L31 29L32 29L32 26L31 26L31 25L32 25L32 24L33 24L33 23L31 23L31 22L32 22L32 21L33 21L33 19L32 19L32 13L33 13L33 12L32 12L32 13L30 13L30 12L29 12L29 10L30 10L30 11L32 11L32 10L33 10L33 8L29 8L29 10L28 10L28 11L27 11L27 10L26 10L26 9L25 9L25 6L24 6L24 8L23 8L23 11L22 11L22 7L23 7L23 6L22 6L22 5L25 5L25 4L24 4L24 3L23 3L23 2L22 2L22 1L24 1L24 2L25 2L25 0L21 0L21 1L19 1L19 0ZM17 1L17 2L18 2L18 1ZM9 2L9 3L10 3L10 2ZM20 2L20 3L19 3L19 5L18 5L18 3L17 3L17 5L16 5L16 4L15 4L15 5L16 5L16 6L15 6L15 8L16 8L16 9L13 9L13 8L14 8L14 6L13 6L13 8L12 8L12 9L11 9L11 10L8 10L8 12L7 12L7 13L6 13L6 14L4 14L4 13L3 13L3 14L4 14L4 16L3 16L3 17L4 17L4 19L3 19L3 18L2 18L2 19L1 19L1 21L2 21L2 20L3 20L3 21L4 21L4 22L5 22L5 21L6 21L6 22L8 22L8 23L6 23L6 24L9 24L9 22L11 22L11 23L10 23L10 24L12 24L12 25L11 25L11 26L12 26L12 25L13 25L13 26L15 26L15 25L16 25L16 27L14 27L14 29L15 29L15 28L16 28L16 29L17 29L17 26L18 26L18 27L22 27L22 28L23 28L23 29L24 29L24 26L21 26L21 25L22 25L22 24L21 24L21 23L20 23L20 21L19 21L19 20L18 20L18 21L16 21L16 22L19 22L19 24L18 24L18 25L17 25L17 24L16 24L16 23L15 23L15 22L13 22L13 21L12 21L12 20L13 20L13 19L12 19L12 20L11 20L11 19L10 19L10 18L12 18L12 17L13 17L13 18L15 18L15 17L16 17L16 18L17 18L17 19L20 19L20 20L21 20L21 18L20 18L20 17L21 17L21 15L22 15L22 14L23 14L23 13L24 13L24 15L23 15L23 16L24 16L24 15L25 15L25 17L24 17L24 18L25 18L25 19L26 19L26 20L25 20L25 21L24 21L24 20L23 20L23 19L22 19L22 20L23 20L23 21L21 21L21 22L22 22L22 23L23 23L23 25L24 25L24 23L25 23L25 24L27 24L27 23L28 23L28 22L29 22L29 25L31 25L31 23L30 23L30 21L31 21L31 20L32 20L32 19L31 19L31 18L29 18L29 17L31 17L31 15L29 15L29 14L30 14L30 13L26 13L26 14L25 14L25 12L27 12L27 11L25 11L25 9L24 9L24 11L25 11L25 12L22 12L22 13L21 13L21 11L20 11L20 6L19 6L19 5L20 5L20 4L21 4L21 5L22 5L22 3L21 3L21 2ZM16 6L16 7L17 7L17 8L18 8L18 7L19 7L19 6L18 6L18 7L17 7L17 6ZM21 6L21 7L22 7L22 6ZM27 8L27 9L28 9L28 8ZM12 9L12 10L11 10L11 11L10 11L10 13L11 13L11 12L12 12L12 13L13 13L13 14L15 14L15 15L14 15L14 16L13 16L13 15L12 15L12 16L11 16L11 15L10 15L10 14L9 14L9 12L8 12L8 15L7 15L7 14L6 14L6 15L7 15L7 16L4 16L4 17L5 17L5 19L7 19L7 20L6 20L6 21L8 21L8 22L9 22L9 21L10 21L10 20L8 20L8 19L9 19L9 18L10 18L10 17L9 17L9 18L8 18L8 19L7 19L7 18L6 18L6 17L7 17L7 16L9 16L9 15L10 15L10 16L11 16L11 17L12 17L12 16L13 16L13 17L15 17L15 16L16 16L16 17L18 17L18 16L20 16L20 15L19 15L19 14L17 14L17 13L18 13L18 12L19 12L19 13L20 13L20 14L21 14L21 13L20 13L20 12L19 12L19 10L18 10L18 9L17 9L17 10L18 10L18 11L17 11L17 12L16 12L16 10L13 10L13 9ZM30 9L30 10L32 10L32 9ZM12 11L12 12L13 12L13 11ZM14 11L14 13L15 13L15 11ZM16 14L16 15L17 15L17 14ZM27 14L27 15L26 15L26 17L25 17L25 18L26 18L26 19L27 19L27 20L26 20L26 21L25 21L25 23L26 23L26 21L27 21L27 20L28 20L28 21L30 21L30 20L29 20L29 19L28 19L28 18L26 18L26 17L29 17L29 16L28 16L28 14ZM22 17L22 18L23 18L23 17ZM14 19L14 21L15 21L15 20L16 20L16 19ZM4 20L4 21L5 21L5 20ZM23 21L23 23L24 23L24 21ZM3 23L3 24L5 24L5 23ZM12 23L12 24L13 24L13 25L15 25L15 23L14 23L14 24L13 24L13 23ZM19 24L19 25L18 25L18 26L19 26L19 25L21 25L21 24ZM25 25L25 28L28 28L28 25ZM26 26L26 27L27 27L27 26ZM29 26L29 28L30 28L30 29L29 29L29 30L30 30L30 29L31 29L31 26ZM8 27L8 29L10 29L10 28L9 28L9 27ZM12 27L12 28L13 28L13 27ZM25 29L25 30L23 30L23 31L25 31L25 30L26 30L26 31L28 31L28 29L27 29L27 30L26 30L26 29ZM21 30L21 31L22 31L22 30ZM8 31L8 33L9 33L9 31ZM29 32L29 33L30 33L30 32ZM32 32L32 33L33 33L33 32ZM0 0L0 7L7 7L7 0ZM1 1L1 6L6 6L6 1ZM2 2L2 5L5 5L5 2ZM26 0L26 7L33 7L33 0ZM27 1L27 6L32 6L32 1ZM28 2L28 5L31 5L31 2ZM0 26L0 33L7 33L7 26ZM1 27L1 32L6 32L6 27ZM2 28L2 31L5 31L5 28Z" fill="#000000"/></g></g></svg>
